<?xml version="1.0" encoding="UTF-8" standalone="no"?>
<!DOCTYPE svg PUBLIC "-//W3C//DTD SVG 1.1//EN"
 "http://www.w3.org/Graphics/SVG/1.1/DTD/svg11.dtd">
<!-- Generated by graphviz version 2.50.0 (20211204.2007)
 -->
<!-- Title: dependency&#45;cruiser output Pages: 1 -->
<svg width="218pt" height="504pt"
 viewBox="0.00 0.00 218.00 504.00" xmlns="http://www.w3.org/2000/svg" xmlns:xlink="http://www.w3.org/1999/xlink">
<g id="graph0" class="graph" transform="scale(1 1) rotate(0) translate(4 500)">
<title>dependency&#45;cruiser output</title>
<polygon fill="white" stroke="transparent" points="-4,4 -4,-500 214,-500 214,4 -4,4"/>
<g id="clust1" class="cluster">
<title>cluster_lib</title>
<path fill="#ffffff" stroke="black" stroke-width="2" d="M106,-128C106,-128 190,-128 190,-128 196,-128 202,-134 202,-140 202,-140 202,-232 202,-232 202,-238 196,-244 190,-244 190,-244 106,-244 106,-244 100,-244 94,-238 94,-232 94,-232 94,-140 94,-140 94,-134 100,-128 106,-128"/>
<text text-anchor="middle" x="148" y="-232.8" font-family="Helvetica,sans-Serif" font-weight="bold" font-size="9.00">lib</text>
</g>
<g id="clust2" class="cluster">
<title>cluster_lib/utils</title>
<path fill="#ffffff" stroke="black" stroke-width="2" d="M114,-136C114,-136 182,-136 182,-136 188,-136 194,-142 194,-148 194,-148 194,-206 194,-206 194,-212 188,-218 182,-218 182,-218 114,-218 114,-218 108,-218 102,-212 102,-206 102,-206 102,-148 102,-148 102,-142 108,-136 114,-136"/>
<text text-anchor="middle" x="148" y="-206.8" font-family="Helvetica,sans-Serif" font-weight="bold" font-size="9.00">utils</text>
</g>
<g id="clust3" class="cluster">
<title>cluster_node_modules</title>
<path fill="#ffffff" stroke="black" stroke-width="2" d="M120,-8C120,-8 176,-8 176,-8 182,-8 188,-14 188,-20 188,-20 188,-108 188,-108 188,-114 182,-120 176,-120 176,-120 120,-120 120,-120 114,-120 108,-114 108,-108 108,-108 108,-20 108,-20 108,-14 114,-8 120,-8"/>
<text text-anchor="middle" x="148" y="-108.8" font-family="Helvetica,sans-Serif" font-weight="bold" font-size="9.00">node_modules</text>
</g>
<g id="clust4" class="cluster">
<title>cluster_src</title>
<path fill="#ffffff" stroke="black" stroke-width="2" d="M20,-252C20,-252 183,-252 183,-252 189,-252 195,-258 195,-264 195,-264 195,-476 195,-476 195,-482 189,-488 183,-488 183,-488 20,-488 20,-488 14,-488 8,-482 8,-476 8,-476 8,-264 8,-264 8,-258 14,-252 20,-252"/>
<text text-anchor="middle" x="101.5" y="-476.8" font-family="Helvetica,sans-Serif" font-weight="bold" font-size="9.00">src</text>
</g>
<g id="clust6" class="cluster">
<title>cluster_src/pages</title>
<path fill="#ffffff" stroke="black" stroke-width="2" d="M28,-380C28,-380 74,-380 74,-380 80,-380 86,-386 86,-392 86,-392 86,-450 86,-450 86,-456 80,-462 74,-462 74,-462 28,-462 28,-462 22,-462 16,-456 16,-450 16,-450 16,-392 16,-392 16,-386 22,-380 28,-380"/>
<text text-anchor="middle" x="51" y="-450.8" font-family="Helvetica,sans-Serif" font-weight="bold" font-size="9.00">pages</text>
</g>
<g id="clust7" class="cluster">
<title>cluster_src/styles</title>
<path fill="#ffffff" stroke="black" stroke-width="2" d="M121,-410C121,-410 175,-410 175,-410 181,-410 187,-416 187,-422 187,-422 187,-450 187,-450 187,-456 181,-462 175,-462 175,-462 121,-462 121,-462 115,-462 109,-456 109,-450 109,-450 109,-422 109,-422 109,-416 115,-410 121,-410"/>
<text text-anchor="middle" x="148" y="-450.8" font-family="Helvetica,sans-Serif" font-weight="bold" font-size="9.00">styles</text>
</g>
<g id="clust8" class="cluster">
<title>cluster_src/templates</title>
<path fill="#ffffff" stroke="black" stroke-width="2" d="M28,-260C28,-260 74,-260 74,-260 80,-260 86,-266 86,-272 86,-272 86,-300 86,-300 86,-306 80,-312 74,-312 74,-312 28,-312 28,-312 22,-312 16,-306 16,-300 16,-300 16,-272 16,-272 16,-266 22,-260 28,-260"/>
<text text-anchor="middle" x="51" y="-300.8" font-family="Helvetica,sans-Serif" font-weight="bold" font-size="9.00">templates</text>
</g>
<g id="clust5" class="cluster">
<title>cluster_src/layouts</title>
<path fill="#ffffff" stroke="black" stroke-width="2" d="M28,-320C28,-320 74,-320 74,-320 80,-320 86,-326 86,-332 86,-332 86,-360 86,-360 86,-366 80,-372 74,-372 74,-372 28,-372 28,-372 22,-372 16,-366 16,-360 16,-360 16,-332 16,-332 16,-326 22,-320 28,-320"/>
<text text-anchor="middle" x="51" y="-360.8" font-family="Helvetica,sans-Serif" font-weight="bold" font-size="9.00">layouts</text>
</g>
<!-- lib/utils/AppConfig.ts -->
<g id="node1" class="node">
<title>lib/utils/AppConfig.ts</title>
<g id="a_node1"><a xlink:href="lib/utils/AppConfig.ts" xlink:title="AppConfig.ts">
<path fill="#ddfeff" stroke="black" d="M176.5,-192C176.5,-192 119.5,-192 119.5,-192 116.5,-192 113.5,-189 113.5,-186 113.5,-186 113.5,-180 113.5,-180 113.5,-177 116.5,-174 119.5,-174 119.5,-174 176.5,-174 176.5,-174 179.5,-174 182.5,-177 182.5,-180 182.5,-180 182.5,-186 182.5,-186 182.5,-189 179.5,-192 176.5,-192"/>
<text text-anchor="start" x="121.5" y="-180.8" font-family="Helvetica,sans-Serif" font-size="9.00">AppConfig.ts</text>
</a>
</g>
</g>
<!-- lib/utils/classNames.ts -->
<g id="node2" class="node">
<title>lib/utils/classNames.ts</title>
<g id="a_node2"><a xlink:href="lib/utils/classNames.ts" xlink:title="no&#45;orphans">
<path fill="#ccffcc" stroke="orange" d="M180,-162C180,-162 116,-162 116,-162 113,-162 110,-159 110,-156 110,-156 110,-150 110,-150 110,-147 113,-144 116,-144 116,-144 180,-144 180,-144 183,-144 186,-147 186,-150 186,-150 186,-156 186,-156 186,-159 183,-162 180,-162"/>
<text text-anchor="start" x="118" y="-150.8" font-family="Helvetica,sans-Serif" font-size="9.00" fill="orange">classNames.ts</text>
</a>
</g>
</g>
<!-- node_modules/next -->
<g id="node3" class="node">
<title>node_modules/next</title>
<g id="a_node3"><a xlink:href="node_modules/next" xlink:title="next">
<polygon fill="#c40b0a" fill-opacity="0.101961" stroke="black" points="175,-94 123,-94 121,-92 121,-76 173,-76 175,-78 175,-94"/>
<polyline fill="none" stroke="black" points="173,-92 121,-92 "/>
<polyline fill="none" stroke="black" points="173,-92 173,-76 "/>
<polyline fill="none" stroke="black" points="173,-92 175,-94 "/>
<text text-anchor="start" x="139" y="-82.8" font-family="Helvetica,sans-Serif" font-size="9.00" fill="#c40b0a">next</text>
</a>
</g>
</g>
<!-- node_modules/next&#45;seo -->
<g id="node4" class="node">
<title>node_modules/next&#45;seo</title>
<g id="a_node4"><a xlink:href="node_modules/next-seo" xlink:title="next&#45;seo">
<polygon fill="#c40b0a" fill-opacity="0.101961" stroke="black" points="175,-64 123,-64 121,-62 121,-46 173,-46 175,-48 175,-64"/>
<polyline fill="none" stroke="black" points="173,-62 121,-62 "/>
<polyline fill="none" stroke="black" points="173,-62 173,-46 "/>
<polyline fill="none" stroke="black" points="173,-62 175,-64 "/>
<text text-anchor="start" x="130" y="-52.8" font-family="Helvetica,sans-Serif" font-size="9.00" fill="#c40b0a">next&#45;seo</text>
</a>
</g>
</g>
<!-- node_modules/react -->
<g id="node5" class="node">
<title>node_modules/react</title>
<g id="a_node5"><a xlink:href="node_modules/react" xlink:title="react">
<polygon fill="#c40b0a" fill-opacity="0.101961" stroke="black" points="175,-34 123,-34 121,-32 121,-16 173,-16 175,-18 175,-34"/>
<polyline fill="none" stroke="black" points="173,-32 121,-32 "/>
<polyline fill="none" stroke="black" points="173,-32 173,-16 "/>
<polyline fill="none" stroke="black" points="173,-32 175,-34 "/>
<text text-anchor="start" x="137.5" y="-22.8" font-family="Helvetica,sans-Serif" font-size="9.00" fill="#c40b0a">react</text>
</a>
</g>
</g>
<!-- src/layouts/Meta.tsx -->
<g id="node6" class="node">
<title>src/layouts/Meta.tsx</title>
<g id="a_node6"><a xlink:href="src/layouts/Meta.tsx" xlink:title="Meta.tsx">
<path fill="#bbfeff" stroke="black" d="M72,-346C72,-346 30,-346 30,-346 27,-346 24,-343 24,-340 24,-340 24,-334 24,-334 24,-331 27,-328 30,-328 30,-328 72,-328 72,-328 75,-328 78,-331 78,-334 78,-334 78,-340 78,-340 78,-343 75,-346 72,-346"/>
<text text-anchor="start" x="34" y="-334.8" font-family="Helvetica,sans-Serif" font-size="9.00">Meta.tsx</text>
</a>
</g>
</g>
<!-- src/layouts/Meta.tsx&#45;&gt;lib/utils/AppConfig.ts -->
<g id="edge1" class="edge">
<title>src/layouts/Meta.tsx&#45;&gt;lib/utils/AppConfig.ts</title>
<path fill="none" stroke="#000000" stroke-width="2" stroke-opacity="0.200000" d="M70.06,-327.93C75.69,-324.47 81.58,-320.1 86,-315 117.12,-279.14 135.43,-224.73 142.97,-198.38"/>
<polygon fill="#000000" fill-opacity="0.200000" stroke="#000000" stroke-width="2" stroke-opacity="0.200000" points="145.07,-198.65 144.65,-192.31 141.02,-197.53 145.07,-198.65"/>
</g>
<!-- src/layouts/Meta.tsx&#45;&gt;node_modules/next -->
<g id="edge3" class="edge">
<title>src/layouts/Meta.tsx&#45;&gt;node_modules/next</title>
<path fill="none" stroke="#000000" stroke-opacity="0.200000" d="M72.74,-327.95C77.95,-324.65 82.92,-320.37 86,-315 106.12,-279.87 76.78,-169.64 94,-133 100.92,-118.29 114.62,-106.07 126.36,-97.64"/>
<polygon fill="#000000" fill-opacity="0.200000" stroke="#000000" stroke-opacity="0.200000" points="127.84,-99.17 131.59,-94.04 125.46,-95.71 127.84,-99.17"/>
</g>
<!-- src/layouts/Meta.tsx&#45;&gt;node_modules/next&#45;seo -->
<g id="edge2" class="edge">
<title>src/layouts/Meta.tsx&#45;&gt;node_modules/next&#45;seo</title>
<path fill="none" stroke="#000000" stroke-opacity="0.200000" d="M72.78,-327.97C77.99,-324.67 82.96,-320.39 86,-315 99.4,-291.29 77.22,-91.45 94,-70 99.12,-63.46 106.86,-59.63 114.87,-57.42"/>
<polygon fill="#000000" fill-opacity="0.200000" stroke="#000000" stroke-opacity="0.200000" points="115.61,-59.41 121,-56.04 114.68,-55.31 115.61,-59.41"/>
</g>
<!-- src/pages/_app.tsx -->
<g id="node7" class="node">
<title>src/pages/_app.tsx</title>
<g id="a_node7"><a xlink:href="src/pages/_app.tsx" xlink:title="_app.tsx">
<path fill="#bbfeff" stroke="black" d="M72,-436C72,-436 30,-436 30,-436 27,-436 24,-433 24,-430 24,-430 24,-424 24,-424 24,-421 27,-418 30,-418 30,-418 72,-418 72,-418 75,-418 78,-421 78,-424 78,-424 78,-430 78,-430 78,-433 75,-436 72,-436"/>
<text text-anchor="start" x="33.5" y="-424.8" font-family="Helvetica,sans-Serif" font-size="9.00">_app.tsx</text>
</a>
</g>
</g>
<!-- src/pages/_app.tsx&#45;&gt;node_modules/next -->
<g id="edge5" class="edge">
<title>src/pages/_app.tsx&#45;&gt;node_modules/next</title>
<path fill="none" stroke="#000000" stroke-opacity="0.200000" d="M78.14,-419.33C81.22,-417.4 83.98,-415 86,-412 103.31,-386.26 81.02,-161.17 94,-133 100.8,-118.24 114.51,-106.02 126.28,-97.6"/>
<polygon fill="#000000" fill-opacity="0.200000" stroke="#000000" stroke-opacity="0.200000" points="127.76,-99.13 131.52,-94.01 125.39,-95.67 127.76,-99.13"/>
</g>
<!-- src/styles/globals.css -->
<g id="node8" class="node">
<title>src/styles/globals.css</title>
<g id="a_node8"><a xlink:href="src/styles/globals.css" xlink:title="globals.css">
<path fill="#ffffcc" stroke="black" d="M173,-436C173,-436 123,-436 123,-436 120,-436 117,-433 117,-430 117,-430 117,-424 117,-424 117,-421 120,-418 123,-418 123,-418 173,-418 173,-418 176,-418 179,-421 179,-424 179,-424 179,-430 179,-430 179,-433 176,-436 173,-436"/>
<text text-anchor="start" x="125" y="-424.8" font-family="Helvetica,sans-Serif" font-size="9.00">globals.css</text>
</a>
</g>
</g>
<!-- src/pages/_app.tsx&#45;&gt;src/styles/globals.css -->
<g id="edge4" class="edge">
<title>src/pages/_app.tsx&#45;&gt;src/styles/globals.css</title>
<path fill="none" stroke="#000000" stroke-width="2" stroke-opacity="0.200000" d="M78.21,-427C88.22,-427 99.82,-427 110.61,-427"/>
<polygon fill="#000000" fill-opacity="0.200000" stroke="#000000" stroke-width="2" stroke-opacity="0.200000" points="110.85,-429.1 116.85,-427 110.85,-424.9 110.85,-429.1"/>
</g>
<!-- src/pages/index.tsx -->
<g id="node9" class="node">
<title>src/pages/index.tsx</title>
<g id="a_node9"><a xlink:href="src/pages/index.tsx" xlink:title="index.tsx">
<path fill="#bbfeff" stroke="black" d="M72,-406C72,-406 30,-406 30,-406 27,-406 24,-403 24,-400 24,-400 24,-394 24,-394 24,-391 27,-388 30,-388 30,-388 72,-388 72,-388 75,-388 78,-391 78,-394 78,-394 78,-400 78,-400 78,-403 75,-406 72,-406"/>
<text text-anchor="start" x="32.5" y="-394.8" font-family="Helvetica,sans-Serif" font-size="9.00">index.tsx</text>
</a>
</g>
</g>
<!-- src/pages/index.tsx&#45;&gt;node_modules/react -->
<g id="edge6" class="edge">
<title>src/pages/index.tsx&#45;&gt;node_modules/react</title>
<path fill="none" stroke="#000000" stroke-opacity="0.200000" d="M72.81,-387.99C78.02,-384.69 82.98,-380.4 86,-375 95.09,-358.75 82.59,-54.71 94,-40 99.09,-33.44 106.83,-29.6 114.83,-27.39"/>
<polygon fill="#000000" fill-opacity="0.200000" stroke="#000000" stroke-opacity="0.200000" points="115.57,-29.38 120.96,-26.01 114.64,-25.28 115.57,-29.38"/>
</g>
<!-- src/templates/Main.tsx -->
<g id="node10" class="node">
<title>src/templates/Main.tsx</title>
<g id="a_node10"><a xlink:href="src/templates/Main.tsx" xlink:title="Main.tsx">
<path fill="#bbfeff" stroke="black" d="M72,-286C72,-286 30,-286 30,-286 27,-286 24,-283 24,-280 24,-280 24,-274 24,-274 24,-271 27,-268 30,-268 30,-268 72,-268 72,-268 75,-268 78,-271 78,-274 78,-274 78,-280 78,-280 78,-283 75,-286 72,-286"/>
<text text-anchor="start" x="34" y="-274.8" font-family="Helvetica,sans-Serif" font-size="9.00">Main.tsx</text>
</a>
</g>
</g>
<!-- src/templates/Main.tsx&#45;&gt;node_modules/react -->
<g id="edge7" class="edge">
<title>src/templates/Main.tsx&#45;&gt;node_modules/react</title>
<path fill="none" stroke="#000000" stroke-opacity="0.200000" d="M52.36,-267.92C54.07,-228.75 62.75,-74.56 94,-40 99.42,-34.01 107.03,-30.34 114.8,-28.11"/>
<polygon fill="#000000" fill-opacity="0.200000" stroke="#000000" stroke-opacity="0.200000" points="115.4,-30.12 120.74,-26.67 114.41,-26.04 115.4,-30.12"/>
</g>
</g>
</svg>
